<svg width="25" height="28" viewBox="0 0 25 28" fill="none" xmlns="http://www.w3.org/2000/svg">
<g id="&#240;&#159;&#166;&#134; icon &#34;calender 2&#34;">
<g id="Group">
<path id="Vector" d="M15.3846 4.80769C15.3846 5.33873 15.8151 5.76923 16.3462 5.76923C16.8772 5.76923 17.3077 5.33873 17.3077 4.80769H15.3846ZM17.3077 0.961538C17.3077 0.4305 16.8772 0 16.3462 0C15.8151 0 15.3846 0.4305 15.3846 0.961538H17.3077ZM7.69231 4.80769C7.69231 5.33873 8.12281 5.76923 8.65385 5.76923C9.18489 5.76923 9.61539 5.33873 9.61539 4.80769H7.69231ZM9.61539 0.961538C9.61539 0.4305 9.18489 0 8.65385 0C8.12281 0 7.69231 0.4305 7.69231 0.961538H9.61539ZM12.5 25.641C10.0749 25.641 8.33332 25.6397 6.98467 25.4936C5.65401 25.3494 4.82041 25.0736 4.16912 24.6004L3.03876 26.1562C4.07251 26.9073 5.28326 27.2436 6.77754 27.4055C8.25382 27.5654 10.1177 27.5641 12.5 27.5641V25.641ZM3.48477e-07 15.0641C3.48477e-07 17.4464 -0.00132024 19.3103 0.158628 20.7865C0.320526 22.2809 0.656821 23.4915 1.40788 24.5254L2.96369 23.395C2.4905 22.7437 2.21468 21.9101 2.07051 20.5795C1.9244 19.2308 1.92308 17.4892 1.92308 15.0641H3.48477e-07ZM4.16912 24.6004C3.70655 24.2644 3.29977 23.8576 2.96369 23.395L1.40788 24.5254C1.86258 25.1512 2.41294 25.7015 3.03876 26.1562L4.16912 24.6004ZM22.0363 23.395C21.7003 23.8576 21.2935 24.2644 20.8309 24.6004L21.9613 26.1562C22.5871 25.7015 23.1374 25.1512 23.5921 24.5254L22.0363 23.395ZM25 15.0641C25 12.6818 25.0013 10.8179 24.8414 9.34164C24.6795 7.84736 24.3432 6.63662 23.5921 5.60286L22.0363 6.73322C22.5095 7.38451 22.7853 8.21812 22.9295 9.54877C23.0756 10.8974 23.0769 12.639 23.0769 15.0641H25ZM20.8309 5.52779C21.2935 5.86387 21.7003 6.27065 22.0363 6.73322L23.5921 5.60286C23.1374 4.97704 22.5871 4.42668 21.9613 3.97199L20.8309 5.52779ZM1.92308 15.0641C1.92308 12.639 1.9244 10.8974 2.07051 9.54877C2.21468 8.21812 2.4905 7.38451 2.96369 6.73322L1.40788 5.60286C0.656821 6.63662 0.320526 7.84736 0.158628 9.34164C-0.00132024 10.8179 3.48477e-07 12.6818 3.48477e-07 15.0641H1.92308ZM3.03876 3.97199C2.41294 4.42668 1.86258 4.97704 1.40788 5.60286L2.96369 6.73322C3.29977 6.27065 3.70655 5.86387 4.16912 5.52779L3.03876 3.97199ZM21.6032 18.0395C18.4488 18.5391 15.975 21.0129 15.4754 24.1673L17.3747 24.4682C17.7441 22.1367 19.5726 20.3082 21.9041 19.9388L21.6032 18.0395ZM9.61539 4.80769V3.56273H7.69231V4.80769H9.61539ZM9.61539 3.56273V0.961538H7.69231V3.56273H9.61539ZM12.5 2.5641C11.0067 2.5641 9.72339 2.56399 8.62092 2.60176L8.68677 4.52371C9.7493 4.4873 10.996 4.48718 12.5 4.48718V2.5641ZM8.62092 2.60176C6.21907 2.68405 4.45372 2.94397 3.03876 3.97199L4.16912 5.52779C5.07367 4.8706 6.30865 4.60518 8.68677 4.52371L8.62092 2.60176ZM17.3077 4.80769V3.56273H15.3846V4.80769H17.3077ZM17.3077 3.56273V0.961538H15.3846V3.56273H17.3077ZM12.5 4.48718C14.004 4.48718 15.2508 4.4873 16.3132 4.52371L16.3791 2.60176C15.2767 2.56399 13.9933 2.5641 12.5 2.5641V4.48718ZM16.3132 4.52371C18.6913 4.60518 19.9263 4.8706 20.8309 5.52779L21.9613 3.97199C20.5463 2.94397 18.7809 2.68405 16.3791 2.60176L16.3132 4.52371ZM24.0014 17.9487C22.8703 17.9487 22.1896 17.9467 21.6032 18.0395L21.9041 19.9388C22.3038 19.8755 22.7997 19.8718 24.0014 19.8718V17.9487ZM23.0769 15.0641C23.0769 16.5681 23.0768 17.8149 23.0404 18.8773L24.9623 18.9432C25.0001 17.8408 25 16.5574 25 15.0641H23.0769ZM23.0404 18.8773C22.959 21.2554 22.6935 22.4904 22.0363 23.395L23.5921 24.5254C24.6201 23.1104 24.88 21.345 24.9623 18.9432L23.0404 18.8773ZM17.3077 26.5655C17.3077 25.3638 17.3114 24.8679 17.3747 24.4682L15.4754 24.1673C15.3826 24.7537 15.3846 25.4344 15.3846 26.5655H17.3077ZM12.5 27.5641C13.9933 27.5641 15.2767 27.5642 16.3791 27.5264L16.3132 25.6045C15.2508 25.6409 14.004 25.641 12.5 25.641V27.5641ZM16.3791 27.5264C18.7809 27.4441 20.5463 27.1842 21.9613 26.1562L20.8309 24.6004C19.9263 25.2576 18.6913 25.5231 16.3132 25.6045L16.3791 27.5264Z" fill="#177888"/>
<path id="Vector_2" d="M7.37172 9.93586C7.37172 10.6439 6.79772 11.2179 6.08967 11.2179C5.38162 11.2179 4.80762 10.6439 4.80762 9.93586C4.80762 9.22781 5.38162 8.65381 6.08967 8.65381C6.79772 8.65381 7.37172 9.22781 7.37172 9.93586Z" fill="#177888"/>
<path id="Vector_3" d="M7.37172 15.064C7.37172 15.7721 6.79772 16.3461 6.08967 16.3461C5.38162 16.3461 4.80762 15.7721 4.80762 15.064C4.80762 14.356 5.38162 13.782 6.08967 13.782C6.79772 13.782 7.37172 14.356 7.37172 15.064Z" fill="#177888"/>
<path id="Vector_4" d="M13.782 9.93586C13.782 10.6439 13.208 11.2179 12.4999 11.2179C11.7919 11.2179 11.2179 10.6439 11.2179 9.93586C11.2179 9.22781 11.7919 8.65381 12.4999 8.65381C13.208 8.65381 13.782 9.22781 13.782 9.93586Z" fill="#177888"/>
<path id="Vector_5" d="M13.782 15.064C13.782 15.7721 13.208 16.3461 12.4999 16.3461C11.7919 16.3461 11.2179 15.7721 11.2179 15.064C11.2179 14.356 11.7919 13.782 12.4999 13.782C13.208 13.782 13.782 14.356 13.782 15.064Z" fill="#177888"/>
<path id="Vector_6" d="M13.782 20.1922C13.782 20.9003 13.208 21.4743 12.4999 21.4743C11.7919 21.4743 11.2179 20.9003 11.2179 20.1922C11.2179 19.4841 11.7919 18.9102 12.4999 18.9102C13.208 18.9102 13.782 19.4841 13.782 20.1922Z" fill="#177888"/>
<path id="Vector_7" d="M20.1924 9.93586C20.1924 10.6439 19.6184 11.2179 18.9103 11.2179C18.2023 11.2179 17.6283 10.6439 17.6283 9.93586C17.6283 9.22781 18.2023 8.65381 18.9103 8.65381C19.6184 8.65381 20.1924 9.22781 20.1924 9.93586Z" fill="#177888"/>
<path id="Vector_8" d="M20.1924 15.064C20.1924 15.7721 19.6184 16.3461 18.9103 16.3461C18.2023 16.3461 17.6283 15.7721 17.6283 15.064C17.6283 14.356 18.2023 13.782 18.9103 13.782C19.6184 13.782 20.1924 14.356 20.1924 15.064Z" fill="#177888"/>
<path id="Vector_9" d="M7.37172 20.1922C7.37172 20.9003 6.79772 21.4743 6.08967 21.4743C5.38162 21.4743 4.80762 20.9003 4.80762 20.1922C4.80762 19.4841 5.38162 18.9102 6.08967 18.9102C6.79772 18.9102 7.37172 19.4841 7.37172 20.1922Z" fill="#177888"/>
</g>
</g>
</svg>
