<svg width="31" height="24" viewBox="0 0 31 24" fill="none" xmlns="http://www.w3.org/2000/svg">
<g id="&#240;&#159;&#166;&#134; icon &#34;arrow ios downward&#34;">
<path id="Vector" d="M15.8896 15.5002C15.5956 15.5006 15.3107 15.4239 15.0844 15.2834L7.53602 10.5719C7.2791 10.412 7.11754 10.1821 7.08687 9.93294C7.0562 9.68377 7.15893 9.43568 7.37247 9.24324C7.58602 9.05081 7.89287 8.92979 8.22554 8.90682C8.5582 8.88385 8.88943 8.9608 9.14634 9.12074L15.8896 13.3423L22.6328 9.27151C22.7615 9.19324 22.9095 9.13479 23.0685 9.09951C23.2274 9.06424 23.3941 9.05285 23.559 9.06598C23.7238 9.07912 23.8836 9.11652 24.029 9.17605C24.1745 9.23558 24.3028 9.31606 24.4067 9.41286C24.5219 9.50975 24.6091 9.62341 24.663 9.74674C24.7168 9.87006 24.7361 10.0004 24.7195 10.1295C24.703 10.2587 24.651 10.3839 24.5669 10.4973C24.4827 10.6107 24.3682 10.7099 24.2305 10.7886L16.6821 15.34C16.4493 15.4582 16.1702 15.5146 15.8896 15.5002Z" fill="#231F20"/>
</g>
</svg>
