<svg width="8" height="5" viewBox="0 0 8 5" fill="none" xmlns="http://www.w3.org/2000/svg">
<path id="Vector" d="M3.85281 4.08663C3.72423 4.0869 3.59962 4.0394 3.50062 3.95238L0.198798 1.03388C0.0864172 0.934804 0.0157448 0.792433 0.00232861 0.638087C-0.0110876 0.483741 0.0338512 0.330064 0.127259 0.210863C0.220666 0.0916614 0.354892 0.0167004 0.500406 0.00246994C0.645921 -0.0117605 0.790805 0.0359053 0.903186 0.134982L3.85281 2.74996L6.80244 0.228374C6.85873 0.179889 6.92349 0.143681 6.99302 0.121832C7.06254 0.0999828 7.13545 0.0929236 7.20756 0.10106C7.27966 0.109196 7.34954 0.132367 7.41318 0.169242C7.47681 0.206116 7.53295 0.255967 7.57836 0.315929C7.62876 0.375946 7.66693 0.446355 7.69048 0.522746C7.71403 0.599137 7.72245 0.679863 7.71521 0.759867C7.70798 0.839871 7.68525 0.917429 7.64845 0.987681C7.61164 1.05793 7.56155 1.11937 7.50132 1.16813L4.1995 3.9874C4.09765 4.06067 3.97558 4.0956 3.85281 4.08663Z" fill="#231F20"/>
</svg>
