<svg width="20" height="20" viewBox="0 0 34 38" fill="none" xmlns="http://www.w3.org/2000/svg">
<g id="&#240;&#159;&#166;&#134; icon &#34;bell&#34;">
<path id="Vector" d="M16.6251 38C19.2465 38 21.3728 35.8736 21.3728 33.25H11.8773C11.8773 35.8736 14.0036 38 16.6251 38ZM32.611 26.8887C31.1771 25.3479 28.4941 23.0301 28.4941 15.4375C28.4941 9.6707 24.4507 5.0543 18.9986 3.92172V2.375C18.9986 1.06355 17.9358 0 16.6251 0C15.3143 0 14.2515 1.06355 14.2515 2.375V3.92172C8.79943 5.0543 4.75599 9.6707 4.75599 15.4375C4.75599 23.0301 2.07298 25.3479 0.639075 26.8887C0.193762 27.3674 -0.00365962 27.9396 5.1314e-05 28.5C0.00821538 29.7172 0.96341 30.875 2.38247 30.875H30.8676C32.2867 30.875 33.2426 29.7172 33.2501 28.5C33.2538 27.9396 33.0563 27.3667 32.611 26.8887Z" fill="#648684"/>
</g>
</svg>
