<svg width="37" height="31" viewBox="0 0 37 31" fill="none" xmlns="http://www.w3.org/2000/svg">
<path fill-rule="evenodd" clip-rule="evenodd" d="M18.3868 1.80541C19.519 1.80541 20.4368 2.57429 20.4368 3.52274C20.4368 4.4712 19.519 5.24007 18.3868 5.24007L5.89401 5.24007C4.90331 5.24007 4.10018 5.91283 4.10018 6.74272L4.10018 26.0627C4.10018 26.8926 4.9033 27.5653 5.89401 27.5653H28.9575C29.9482 27.5653 30.7514 26.8926 30.7514 26.0627V16.4027C30.7514 15.4543 31.6692 14.6854 32.8014 14.6854C33.9337 14.6854 34.8515 15.4543 34.8515 16.4027V26.0627C34.8515 28.7895 32.2127 31 28.9575 31H5.89401C2.63884 31 0 28.7895 0 26.0627V6.74272C0 4.01592 2.63884 1.80541 5.89401 1.80541H18.3868ZM36.2306 0.376327C37.1146 0.968732 37.2579 2.04927 36.5508 2.78978L22.1002 18.3289C21.337 19.128 19.9141 19.194 19.0502 18.4704L10.8511 11.6021C10.0507 10.9315 10.0507 9.84444 10.8511 9.17382C11.6515 8.5032 12.9494 8.50326 13.7499 9.17382L20.3297 14.6856L33.3495 0.644488C34.0567 -0.0960187 35.3466 -0.216079 36.2306 0.376327Z" fill="#177888"/>
</svg>
