<svg xmlns="http://www.w3.org/2000/svg" width="14" height="16" viewBox="0 0 14 16" fill="none">
    <path d="M5.31044 0.685394C5.31044 0.685394 7.93003 -1.56436 10.7121 2.0881C10.8941 2.39982 11.4532 3.2943 11.6872 5.42208C11.7132 5.71346 11.8237 8.53921 12.6817 9.96225C12.4997 10.0571 12.3112 10.423 9.36658 10.3756C9.38608 10.9448 9.36658 11.5073 9.36658 11.5073C9.36658 11.5073 11.1216 11.9816 12.0252 12.395C12.1812 12.4695 14.3328 13.2623 13.9557 16C13.4162 16 0.0192519 16 0.0192519 16C0.0192519 16 -0.240757 13.7706 1.15029 12.8287C1.3388 12.6999 3.26937 11.7241 4.60842 11.5276C4.60842 11.0939 4.58891 10.3688 4.58891 10.3688C4.58891 10.3688 2.10583 10.5111 1.00729 10.0978C1.07879 9.95547 1.96282 8.88481 2.37884 5.47629C2.43084 5.25945 2.63884 3.50437 2.95086 2.56245C3.02236 2.37271 3.49688 0.610854 5.31044 0.685394Z" fill="#4B5563"/>
    <path d="M5.51195 3.41602C5.51195 3.41602 6.07747 5.11689 7.67002 5.29985C7.69603 5.11689 7.47502 5.3134 7.59852 4.14109C7.67002 4.18852 8.47605 5.61156 9.47709 5.73354C9.63959 5.76742 10.0816 6.01137 10.4716 6.02492C10.5756 6.03847 11.2452 6.38407 10.5886 7.32598C10.5561 7.39375 10.3351 7.71901 9.7566 7.90875C9.7241 7.96974 9.13908 10.0365 7.68953 10.66C7.61802 10.6803 7.007 11.0056 6.29848 10.66C6.22697 10.6396 4.90743 10.0907 4.2119 7.91553C4.1534 7.88165 3.79589 7.80033 3.51638 7.48184C3.48388 7.43441 2.46334 6.42473 3.78289 5.86906C3.86739 5.82163 4.86192 5.37439 5.32994 3.55832C5.38844 3.49056 5.38194 3.46345 5.51195 3.41602Z" fill="#4B5563"/>
</svg>