<svg width="20" height="19" viewBox="0 0 20 19" fill="none" xmlns="http://www.w3.org/2000/svg">
<g id="vuesax/bold/arrow-square-right">
<g id="arrow-square-right">
<path id="Vector" d="M13.4017 1.6958H6.71953C3.81701 1.6958 2.08667 3.3675 2.08667 6.17165V12.6197C2.08667 15.4315 3.81701 17.1032 6.71953 17.1032H13.3937C16.2962 17.1032 18.0266 15.4315 18.0266 12.6274V6.17165C18.0345 3.3675 16.3042 1.6958 13.4017 1.6958ZM12.2853 9.8078L9.47053 12.5272C9.35093 12.6428 9.19942 12.6967 9.04792 12.6967C8.89641 12.6967 8.74491 12.6428 8.6253 12.5272C8.39405 12.3038 8.39405 11.934 8.6253 11.7106L11.0175 9.3995L8.6253 7.08839C8.39405 6.86499 8.39405 6.49521 8.6253 6.2718C8.85654 6.04839 9.23929 6.04839 9.47053 6.2718L12.2853 8.99121C12.5246 9.21462 12.5246 9.58439 12.2853 9.8078Z" fill="#292D32"/>
</g>
</g>
</svg>
