<svg width="27" height="27" viewBox="0 0 27 27" fill="none" xmlns="http://www.w3.org/2000/svg">
<g id="&#240;&#159;&#166;&#134; icon &#34;home simple door&#34;">
<path id="Vector" d="M9.33333 25.0593H6.55556C3.48731 25.0593 1 22.572 1 19.5038V10.7643C1 8.82165 2.01474 7.0201 3.6761 6.01321L10.6205 1.80446C12.3904 0.731847 14.6096 0.731847 16.3794 1.80446L23.3239 6.01321C24.9853 7.0201 26 8.82165 26 10.7643V19.5038C26 22.572 23.5126 25.0593 20.4444 25.0593H17.6667M9.33333 25.0593V19.5038C9.33333 17.2025 11.1987 15.3371 13.5 15.3371C15.8012 15.3371 17.6667 17.2025 17.6667 19.5038V25.0593M9.33333 25.0593H17.6667" stroke="#177888" stroke-width="2" stroke-linecap="round" stroke-linejoin="round"/>
</g>
</svg>
