<svg xmlns="http://www.w3.org/2000/svg" width="37" height="36" viewBox="0 0 37 36" fill="none">
    <path d="M29.0875 31.9825H21.9506C23.1495 30.912 24.2801 29.7674 25.3358 28.5554C29.2967 24 31.3962 19.1978 31.3962 14.6669C31.3962 11.2991 30.0584 8.0693 27.6771 5.68794C25.2957 3.30658 22.0659 1.96875 18.6981 1.96875C15.3304 1.96875 12.1006 3.30658 9.71919 5.68794C7.33783 8.0693 6 11.2991 6 14.6669C6 19.1978 8.09375 24 12.0605 28.5554C13.1162 29.7674 14.2468 30.912 15.4457 31.9825H8.30875C8.00259 31.9825 7.70897 32.1041 7.49248 32.3206C7.276 32.5371 7.15437 32.8307 7.15437 33.1369C7.15437 33.443 7.276 33.7367 7.49248 33.9531C7.70897 34.1696 8.00259 34.2912 8.30875 34.2912H29.0875C29.3937 34.2912 29.6873 34.1696 29.9038 33.9531C30.1203 33.7367 30.2419 33.443 30.2419 33.1369C30.2419 32.8307 30.1203 32.5371 29.9038 32.3206C29.6873 32.1041 29.3937 31.9825 29.0875 31.9825ZM18.6981 10.0494C19.6114 10.0494 20.5041 10.3202 21.2635 10.8276C22.0228 11.3349 22.6147 12.0561 22.9641 12.8998C23.3136 13.7436 23.4051 14.672 23.2269 15.5677C23.0487 16.4634 22.609 17.2862 21.9632 17.9319C21.3174 18.5777 20.4947 19.0175 19.599 19.1957C18.7032 19.3738 17.7748 19.2824 16.9311 18.9329C16.0873 18.5834 15.3662 17.9916 14.8588 17.2322C14.3514 16.4729 14.0806 15.5801 14.0806 14.6669C14.0806 13.4422 14.5671 12.2678 15.4331 11.4018C16.299 10.5359 17.4735 10.0494 18.6981 10.0494Z" fill="#177888"/>
</svg>