<svg width="25" height="24" viewBox="0 0 25 24" fill="none" xmlns="http://www.w3.org/2000/svg">
<g id="&#240;&#159;&#166;&#134; icon &#34;Alternate Map Marker&#34;">
<path id="Vector" d="M10.7809 23.5158C1.68784 13.6421 0 12.6287 0 9C0 4.02942 5.37963 0 12.0158 0C18.652 0 24.0316 4.02942 24.0316 9C24.0316 12.6287 22.3438 13.6421 13.2507 23.5158C12.6539 24.1614 11.3776 24.1614 10.7809 23.5158ZM12.0158 12.75C14.7809 12.75 17.0224 11.0711 17.0224 9C17.0224 6.92892 14.7809 5.25 12.0158 5.25C9.25072 5.25 7.00921 6.92892 7.00921 9C7.00921 11.0711 9.25072 12.75 12.0158 12.75Z" fill="black"/>
</g>
</svg>
