<svg xmlns="http://www.w3.org/2000/svg" width="14" height="16" viewBox="0 0 14 16" fill="none">
    <g clip-path="url(#clip0_802_1434)">
        <path d="M10.8513 9.26333C9.23787 8.66106 8.56721 7.91211 8.56721 7.91211L8.51321 7.97094C8.03408 8.48632 7.50417 8.78931 7.02142 8.78931H6.97587C6.49315 8.78931 5.96324 8.48632 5.48411 7.97094L5.43008 7.91211C5.43008 7.91211 4.75948 8.66103 3.14606 9.26333C0.764374 10.2801 1.47951 14.4182 1.47882 14.4502C1.55383 14.9111 1.59755 15.0695 1.63565 15.0873C4.02738 16.3042 9.96997 16.3042 12.3617 15.0873C12.3998 15.0695 12.4435 14.9111 12.5186 14.4502C12.5179 14.4182 13.2426 10.2966 10.8513 9.26333Z" fill="#4B5563"/>
        <path d="M9.49989 3.98429L9.47991 3.95952C9.3459 3.8193 9.35638 3.82734 9.35638 3.82734C9.35638 3.82734 9.59012 2.47946 9.40268 1.84206C9.10843 0.824109 7.35082 0.141855 6.99829 0.0625571C6.99835 0.0618025 6.78387 0.0127538 6.77018 0.0126554C6.77018 0.0126554 6.4929 -0.0514197 6.17152 0.108784C5.96221 0.200812 4.86797 0.767908 4.55738 1.84206C4.36998 2.47946 4.60371 3.82734 4.60371 3.82734C4.60371 3.82734 4.61419 3.8193 4.48016 3.95952L4.46021 3.98429C4.36955 4.10194 4.39194 4.47006 4.49104 4.85303C4.58084 5.23673 4.69788 5.33984 4.72592 5.4297C5.01021 6.9552 5.99875 8.2577 7.00613 8.2577C8.0135 8.2577 8.94982 6.9552 9.23411 5.4297C9.26219 5.33988 9.37923 5.23673 9.46903 4.85303C9.56813 4.47002 9.59313 4.07665 9.49989 3.98429Z" fill="#4B5563"/>
    </g>
    <defs>
        <clipPath id="clip0_802_1434">
            <rect width="14" height="16" fill="white"/>
        </clipPath>
    </defs>
</svg>