<svg width="38" height="38" viewBox="0 0 38 38" fill="none" xmlns="http://www.w3.org/2000/svg">
<g id="vuesax/bold/microphone-2">
<g id="microphone-2">
<path id="Vector" d="M30.2734 14.4399C29.6559 14.4399 29.1651 14.9307 29.1651 15.5482V18.0499C29.1651 23.6549 24.6051 28.2149 19.0001 28.2149C13.3951 28.2149 8.83508 23.6549 8.83508 18.0499V15.5324C8.83508 14.9149 8.34424 14.4241 7.72674 14.4241C7.10924 14.4241 6.61841 14.9149 6.61841 15.5324V18.0341C6.61841 24.4782 11.5742 29.7824 17.8917 30.3524V33.7249C17.8917 34.3424 18.3826 34.8332 19.0001 34.8332C19.6176 34.8332 20.1084 34.3424 20.1084 33.7249V30.3524C26.4101 29.7982 31.3817 24.4782 31.3817 18.0341V15.5324C31.3659 14.9307 30.8751 14.4399 30.2734 14.4399Z" fill="#292D32"/>
<path id="Vector_2" d="M19 3.16675C15.1367 3.16675 12.0017 6.30175 12.0017 10.1651V18.2717C12.0017 22.1351 15.1367 25.2701 19 25.2701C22.8634 25.2701 25.9984 22.1351 25.9984 18.2717V10.1651C25.9984 6.30175 22.8634 3.16675 19 3.16675ZM21.0742 14.1709C20.9634 14.5826 20.5992 14.8517 20.1875 14.8517C20.1084 14.8517 20.0292 14.8359 19.95 14.8201C19.3325 14.6459 18.6834 14.6459 18.0659 14.8201C17.5592 14.9626 17.0684 14.6617 16.9417 14.1709C16.7992 13.6801 17.1 13.1734 17.5909 13.0467C18.525 12.7934 19.5067 12.7934 20.4409 13.0467C20.9159 13.1734 21.2009 13.6801 21.0742 14.1709ZM21.9134 11.0992C21.7709 11.4792 21.4225 11.7009 21.0425 11.7009C20.9317 11.7009 20.8367 11.6851 20.7259 11.6534C19.6175 11.2417 18.3825 11.2417 17.2742 11.6534C16.7992 11.8276 16.2609 11.5742 16.0867 11.0992C15.9125 10.6242 16.1659 10.0859 16.6409 9.92758C18.1609 9.37341 19.8392 9.37341 21.3592 9.92758C21.8342 10.1017 22.0875 10.6242 21.9134 11.0992Z" fill="#292D32"/>
</g>
</g>
</svg>
