<svg xmlns="http://www.w3.org/2000/svg" width="14" height="16" viewBox="0 0 14 16" fill="none">
    <path d="M4.45094 2.38044C4.55293 2.31686 4.66677 2.40309 4.66677 2.52328V11.602C4.66677 11.7442 4.57164 11.8652 4.45094 11.9404L3.0801 12.8338C2.12344 13.4604 1.33594 12.9404 1.33594 11.6738V5.18711C1.33594 4.76711 1.59844 4.24711 1.9251 4.03378L4.45094 2.38044Z" fill="#177888"/>
    <path d="M8.49628 4.01649C8.65307 4.10523 8.75 4.27146 8.75 4.45163V12.8203C8.75 13.2007 8.34207 13.4417 8.00883 13.2582L5.94633 12.1226C5.78668 12.0347 5.6875 11.8669 5.6875 11.6846V3.28428C5.6875 2.90128 6.10047 2.66049 6.43378 2.84914L8.49628 4.01649Z" fill="#177888"/>
    <path d="M12.8333 4.32704V10.8137C12.8333 11.2337 12.5708 11.7537 12.2441 11.967L10.5447 13.0801C10.2122 13.2979 9.77075 13.0593 9.77075 12.6618V4.29785C9.77075 4.1289 9.85607 3.97138 9.99757 3.87907L11.0891 3.16704C12.0458 2.54037 12.8333 3.06037 12.8333 4.32704Z" fill="#177888"/>
</svg>