<svg width="37" height="29" viewBox="0 0 37 29" fill="none" xmlns="http://www.w3.org/2000/svg">
<path fill-rule="evenodd" clip-rule="evenodd" d="M31.3992 0.257812C34.4595 0.257812 36.9403 2.46544 36.9403 5.18868V18.3377C36.9403 21.0609 34.4595 23.2685 31.3992 23.2685H17.8545C17.4548 23.2685 17.066 23.3839 16.7463 23.5973L10.3433 27.8707C9.12566 28.6833 7.38805 27.9102 7.38805 26.5558V23.2685H5.54104C2.48081 23.2685 0 21.0609 0 18.3377V5.18868C0 2.46544 2.48081 0.257812 5.54104 0.257812H31.3992ZM11.0821 10.1196C12.1022 10.1196 12.9291 10.8554 12.9291 11.7632C12.9291 12.6709 12.1022 13.4068 11.0821 13.4068C10.062 13.4068 9.23507 12.6709 9.23507 11.7632C9.23507 10.8554 10.062 10.1196 11.0821 10.1196ZM18.4701 10.1196C19.4902 10.1196 20.3171 10.8554 20.3171 11.7632C20.3171 12.6709 19.4902 13.4068 18.4701 13.4068C17.4501 13.4068 16.6231 12.6709 16.6231 11.7632C16.6231 10.8554 17.4501 10.1196 18.4701 10.1196ZM25.8582 10.1196C26.8783 10.1196 27.7052 10.8554 27.7052 11.7632C27.7052 12.6709 26.8783 13.4068 25.8582 13.4068C24.8381 13.4068 24.0112 12.6709 24.0112 11.7632C24.0112 10.8554 24.8381 10.1196 25.8582 10.1196Z" fill="#177888"/>
</svg>
