<svg width="27" height="27" viewBox="0 0 27 27" fill="none" xmlns="http://www.w3.org/2000/svg">
<g id="vuesax/bold/route-square">
<g id="route-square">
<path id="Vector" d="M17.9274 2.24951H8.8491C4.90576 2.24951 2.55493 4.60034 2.55493 8.54368V17.6112C2.55493 21.5653 4.90576 23.9162 8.8491 23.9162H17.9166C21.8599 23.9162 24.2108 21.5653 24.2108 17.622V8.54368C24.2216 4.60034 21.8708 2.24951 17.9274 2.24951ZM19.1841 9.88701L16.6491 18.0553C16.0424 19.9945 13.3233 20.027 12.6841 18.0987L11.9258 15.8562C11.7199 15.2387 11.2324 14.7403 10.6149 14.5453L8.3616 13.787C6.45493 13.1478 6.4766 10.407 8.41576 9.82201L16.5841 7.27618C18.1874 6.78868 19.6933 8.29451 19.1841 9.88701Z" fill="#177888"/>
</g>
</g>
</svg>
