<svg width="34" height="34" viewBox="0 0 34 34" fill="none" xmlns="http://www.w3.org/2000/svg">
<g id="Group 4">
<g id="&#240;&#159;&#166;&#134; icon &#34;calender 2&#34;">
<g id="Group">
<g id="Vector">
<path d="M22.2308 7.11628C21.5086 7.11628 20.9231 6.58526 20.9231 5.93023V5.55194C19.7731 5.53496 18.4778 5.53488 17 5.53488C15.5222 5.53488 14.227 5.53496 13.0769 5.55194V5.93023C13.0769 6.58526 12.4914 7.11628 11.7692 7.11628C11.047 7.11628 10.4615 6.58526 10.4615 5.93023V5.64123C8.08667 5.78936 6.71591 6.12926 5.67 6.81847C5.04091 7.23302 4.48769 7.73478 4.03062 8.30535C3.38708 9.10871 3.01196 10.137 2.8159 11.7783C2.61718 13.4418 2.61539 15.59 2.61539 18.5814C2.61539 21.5728 2.61718 23.7209 2.8159 25.3846C3.01196 27.0259 3.38708 28.0541 4.03062 28.8575C4.48769 29.428 5.04091 29.9298 5.67 30.3443C6.55576 30.928 7.68946 31.2681 9.49915 31.446C11.3333 31.6263 13.7018 31.6279 17 31.6279C18.4792 31.6279 19.7755 31.6278 20.9263 31.6108C20.9339 30.8602 20.9597 30.3076 21.0465 29.8101C21.726 25.9192 25.0904 22.8678 29.3804 22.2515C29.9289 22.1727 30.5382 22.1494 31.3657 22.1424C31.3845 21.0987 31.3846 19.923 31.3846 18.5814C31.3846 15.59 31.3829 13.4418 31.1841 11.7783C30.9879 10.137 30.6129 9.10871 29.9693 8.30535C29.5123 7.73478 28.9591 7.23302 28.33 6.81847C27.284 6.12927 25.9133 5.78937 23.5385 5.64124V5.93023C23.5385 6.58526 22.953 7.11628 22.2308 7.11628Z" fill="#177888"/>
<path d="M28.33 30.3443C28.9591 29.9298 29.5123 29.428 29.9693 28.8575C30.7287 27.9094 31.1036 26.6672 31.267 24.516C30.561 24.5234 30.147 24.543 29.7896 24.5943C26.6187 25.0499 24.132 27.3053 23.6297 30.1812C23.573 30.5054 23.5514 30.8809 23.5433 31.5213C25.9151 31.373 27.2847 31.033 28.33 30.3443Z" fill="#177888"/>
<path fill-rule="evenodd" clip-rule="evenodd" d="M22.2308 7.11628C21.5086 7.11628 20.9231 6.58526 20.9231 5.93023V5.55194C19.7731 5.53496 18.4778 5.53488 17 5.53488C15.5222 5.53488 14.227 5.53496 13.0769 5.55194V5.93023C13.0769 6.58526 12.4914 7.11628 11.7692 7.11628C11.047 7.11628 10.4615 6.58526 10.4615 5.93023V5.64123C8.08667 5.78936 6.71591 6.12926 5.67 6.81847C5.04091 7.23302 4.48769 7.73478 4.03062 8.30535C3.38708 9.10871 3.01196 10.137 2.8159 11.7783C2.61718 13.4418 2.61539 15.59 2.61539 18.5814C2.61539 21.5728 2.61718 23.7209 2.8159 25.3846C3.01196 27.0259 3.38708 28.0541 4.03062 28.8575C4.48769 29.428 5.04091 29.9298 5.67 30.3443C6.55576 30.928 7.68946 31.2681 9.49915 31.446C11.3333 31.6263 13.7018 31.6279 17 31.6279C18.4792 31.6279 19.7755 31.6278 20.9263 31.6108C20.923 31.928 20.9231 32.2806 20.9231 32.6794L20.9231 32.7683H22.2308H23.5385C23.5385 32.2605 23.5391 31.8549 23.5433 31.5213C25.9151 31.373 27.2847 31.033 28.33 30.3443C28.9591 29.9298 29.5123 29.428 29.9693 28.8575C30.7287 27.9094 31.1036 26.6672 31.267 24.516C31.6349 24.5122 32.0821 24.5116 32.6419 24.5116V23.3256V22.1395L32.5444 22.1395C32.1045 22.1395 31.7156 22.1395 31.3657 22.1424C31.3845 21.0987 31.3846 19.923 31.3846 18.5814C31.3846 15.59 31.3829 13.4418 31.1841 11.7783C30.9879 10.137 30.6129 9.10871 29.9693 8.30535C29.5123 7.73478 28.9591 7.23302 28.33 6.81847C27.284 6.12927 25.9133 5.78937 23.5385 5.64124V5.93023C23.5385 6.58526 22.953 7.11628 22.2308 7.11628ZM20.9231 3.17957V1.18605C20.9231 0.531017 21.5086 0 22.2308 0C22.953 0 23.5385 0.531017 23.5385 1.18605V3.26334C26.1746 3.41324 28.1999 3.80064 29.8673 4.8994C30.7184 5.46026 31.4669 6.13912 32.0852 6.91106C33.1068 8.18619 33.5641 9.67963 33.7843 11.5228C34 13.3294 34 15.6065 34 18.5117V18.5814V18.6001C34 20.4341 34 22.011 33.9487 23.3662C33.8368 26.3288 33.4834 28.5064 32.0852 30.2518C31.4669 31.0237 30.7184 31.7026 29.8673 32.2633C27.9429 33.5314 25.542 33.852 22.2756 33.9535C20.7813 34 19.0426 34 17.0203 34H17H16.9232C13.72 34 11.2093 34 9.21745 33.8044C7.18523 33.6047 5.53862 33.1899 4.13271 32.2633C3.28159 31.7026 2.53311 31.0237 1.91472 30.2518C0.893276 28.9765 0.435915 27.4832 0.215735 25.64C-2.60323e-05 23.8338 -1.46987e-05 21.5573 0 18.653L4.73933e-07 18.5814L0 18.5098C-1.46986e-05 15.6055 -2.60323e-05 13.329 0.215735 11.5228C0.435915 9.67963 0.893276 8.18619 1.91472 6.91106C2.53311 6.13912 3.28159 5.46026 4.13271 4.8994C5.80015 3.80065 7.82537 3.41324 10.4615 3.26334V1.18605C10.4615 0.531017 11.047 0 11.7692 0C12.4914 0 13.0769 0.531017 13.0769 1.18605V3.17957C14.244 3.16279 15.5408 3.16279 16.9815 3.16279H17H17.0185C18.4592 3.16279 19.756 3.16279 20.9231 3.17957Z" fill="#177888"/>
</g>
<path id="Vector_2" d="M10.0255 12.2558C10.0255 13.1291 9.24487 13.8372 8.28192 13.8372C7.31897 13.8372 6.53833 13.1291 6.53833 12.2558C6.53833 11.3824 7.31897 10.6744 8.28192 10.6744C9.24487 10.6744 10.0255 11.3824 10.0255 12.2558Z" fill="white"/>
<path id="Vector_3" d="M10.0255 18.5816C10.0255 19.455 9.24487 20.163 8.28192 20.163C7.31897 20.163 6.53833 19.455 6.53833 18.5816C6.53833 17.7082 7.31897 17.0002 8.28192 17.0002C9.24487 17.0002 10.0255 17.7082 10.0255 18.5816Z" fill="white"/>
<path id="Vector_4" d="M18.7435 12.2558C18.7435 13.1291 17.9629 13.8372 16.9999 13.8372C16.037 13.8372 15.2563 13.1291 15.2563 12.2558C15.2563 11.3824 16.037 10.6744 16.9999 10.6744C17.9629 10.6744 18.7435 11.3824 18.7435 12.2558Z" fill="white"/>
<path id="Vector_5" d="M18.7435 18.5816C18.7435 19.455 17.9629 20.163 16.9999 20.163C16.037 20.163 15.2563 19.455 15.2563 18.5816C15.2563 17.7082 16.037 17.0002 16.9999 17.0002C17.9629 17.0002 18.7435 17.7082 18.7435 18.5816Z" fill="white"/>
<path id="Vector_6" d="M18.7435 24.9069C18.7435 25.7803 17.9629 26.4882 16.9999 26.4882C16.037 26.4882 15.2563 25.7803 15.2563 24.9069C15.2563 24.0334 16.037 23.3255 16.9999 23.3255C17.9629 23.3255 18.7435 24.0334 18.7435 24.9069Z" fill="white"/>
<path id="Vector_7" d="M27.4617 12.2558C27.4617 13.1291 26.6811 13.8372 25.7181 13.8372C24.7551 13.8372 23.9745 13.1291 23.9745 12.2558C23.9745 11.3824 24.7551 10.6744 25.7181 10.6744C26.6811 10.6744 27.4617 11.3824 27.4617 12.2558Z" fill="white"/>
<path id="Vector_8" d="M27.4617 18.5816C27.4617 19.455 26.6811 20.163 25.7181 20.163C24.7551 20.163 23.9745 19.455 23.9745 18.5816C23.9745 17.7082 24.7551 17.0002 25.7181 17.0002C26.6811 17.0002 27.4617 17.7082 27.4617 18.5816Z" fill="white"/>
<path id="Vector_9" d="M10.0255 24.9069C10.0255 25.7803 9.24487 26.4882 8.28192 26.4882C7.31897 26.4882 6.53833 25.7803 6.53833 24.9069C6.53833 24.0334 7.31897 23.3255 8.28192 23.3255C9.24487 23.3255 10.0255 24.0334 10.0255 24.9069Z" fill="white"/>
</g>
</g>
</g>
</svg>
