<svg xmlns="http://www.w3.org/2000/svg" width="53" height="53" viewBox="0 0 73 73" fill="none">
    <path d="M33.3799 6.67975L16.8799 12.8598C13.7299 14.0598 11.1499 17.7798 11.1499 21.1698V45.4697C11.1499 47.8997 12.7399 51.1098 14.6899 52.5498L31.1899 64.8797C34.0999 67.0697 38.8699 67.0697 41.7799 64.8797L58.2799 52.5498C60.2299 51.0798 61.8199 47.8997 61.8199 45.4697V21.1698C61.8199 17.8098 59.2399 14.0598 56.0899 12.8898L39.5899 6.70975C37.9099 6.04975 35.0899 6.04975 33.3799 6.67975Z" fill="white"/>
    <path d="M32.4797 43.1904C31.9097 43.1904 31.3397 42.9804 30.8897 42.5304L26.0597 37.7004C25.1897 36.8304 25.1897 35.3904 26.0597 34.5204C26.9297 33.6504 28.3697 33.6504 29.2397 34.5204L32.4797 37.7604L43.7897 26.4504C44.6597 25.5804 46.0997 25.5804 46.9697 26.4504C47.8397 27.3204 47.8397 28.7604 46.9697 29.6304L34.0697 42.5304C33.6197 42.9804 33.0497 43.1904 32.4797 43.1904Z" fill="#292D32"/>
</svg>