<svg width="23" height="19" viewBox="0 0 23 19" fill="none" xmlns="http://www.w3.org/2000/svg">
<path d="M1.91667 3.95827H5.31396C5.43069 4.50871 5.77863 5.00752 6.2966 5.36696C6.81456 5.7264 7.46936 5.92345 8.14583 5.92345C8.8223 5.92345 9.47711 5.7264 9.99507 5.36696C10.513 5.00752 10.861 4.50871 10.9777 3.95827H21.0833C21.2104 3.95827 21.3323 3.91656 21.4222 3.84233C21.512 3.7681 21.5625 3.66741 21.5625 3.56243C21.5625 3.45745 21.512 3.35677 21.4222 3.28254C21.3323 3.2083 21.2104 3.1666 21.0833 3.1666H10.9777C10.861 2.61616 10.513 2.11735 9.99507 1.75791C9.47711 1.39847 8.8223 1.20142 8.14583 1.20142C7.46936 1.20142 6.81456 1.39847 6.2966 1.75791C5.77863 2.11735 5.43069 2.61616 5.31396 3.1666H1.91667C1.78958 3.1666 1.66771 3.2083 1.57784 3.28254C1.48798 3.35677 1.4375 3.45745 1.4375 3.56243C1.4375 3.66741 1.48798 3.7681 1.57784 3.84233C1.66771 3.91656 1.78958 3.95827 1.91667 3.95827ZM8.14583 1.9791C8.52491 1.9791 8.89548 2.07196 9.21068 2.24594C9.52587 2.41992 9.77153 2.6672 9.9166 2.95652C10.0617 3.24583 10.0996 3.56419 10.0257 3.87133C9.95172 4.17846 9.76917 4.46059 9.50112 4.68202C9.23307 4.90345 8.89155 5.05425 8.51976 5.11534C8.14796 5.17644 7.76258 5.14508 7.41236 5.02524C7.06213 4.9054 6.76279 4.70246 6.55218 4.44209C6.34158 4.18171 6.22917 3.87559 6.22917 3.56243C6.22917 3.14251 6.4311 2.73978 6.79054 2.44285C7.14999 2.14591 7.6375 1.9791 8.14583 1.9791ZM21.0833 9.1041H17.686C17.5693 8.55366 17.2214 8.05485 16.7034 7.69541C16.1854 7.33597 15.5306 7.13892 14.8542 7.13892C14.1777 7.13892 13.5229 7.33597 13.0049 7.69541C12.487 8.05485 12.139 8.55366 12.0223 9.1041H1.91667C1.78958 9.1041 1.66771 9.1458 1.57784 9.22004C1.48798 9.29427 1.4375 9.39495 1.4375 9.49993C1.4375 9.60491 1.48798 9.7056 1.57784 9.77983C1.66771 9.85406 1.78958 9.89577 1.91667 9.89577H12.0223C12.139 10.4462 12.487 10.945 13.0049 11.3045C13.5229 11.6639 14.1777 11.8609 14.8542 11.8609C15.5306 11.8609 16.1854 11.6639 16.7034 11.3045C17.2214 10.945 17.5693 10.4462 17.686 9.89577H21.0833C21.2104 9.89577 21.3323 9.85406 21.4222 9.77983C21.512 9.7056 21.5625 9.60491 21.5625 9.49993C21.5625 9.39495 21.512 9.29427 21.4222 9.22004C21.3323 9.1458 21.2104 9.1041 21.0833 9.1041ZM14.8542 11.0833C14.4751 11.0833 14.1045 10.9904 13.7893 10.8164C13.4741 10.6424 13.2285 10.3952 13.0834 10.1058C12.9383 9.81653 12.9004 9.49818 12.9743 9.19104C13.0483 8.8839 13.2308 8.60178 13.4989 8.38035C13.7669 8.15891 14.1084 8.00812 14.4802 7.94702C14.852 7.88593 15.2374 7.91728 15.5876 8.03712C15.9379 8.15696 16.2372 8.3599 16.4478 8.62028C16.6584 8.88066 16.7708 9.18678 16.7708 9.49993C16.7708 9.91986 16.5689 10.3226 16.2095 10.6195C15.85 10.9165 15.3625 11.0833 14.8542 11.0833ZM21.0833 15.0416H10.9777C10.861 14.4912 10.513 13.9923 9.99507 13.6329C9.47711 13.2735 8.8223 13.0764 8.14583 13.0764C7.46936 13.0764 6.81456 13.2735 6.2966 13.6329C5.77863 13.9923 5.43069 14.4912 5.31396 15.0416H1.91667C1.78958 15.0416 1.66771 15.0833 1.57784 15.1575C1.48798 15.2318 1.4375 15.3325 1.4375 15.4374C1.4375 15.5424 1.48798 15.6431 1.57784 15.7173C1.66771 15.7916 1.78958 15.8333 1.91667 15.8333H5.31396C5.43069 16.3837 5.77863 16.8825 6.2966 17.242C6.81456 17.6014 7.46936 17.7984 8.14583 17.7984C8.8223 17.7984 9.47711 17.6014 9.99507 17.242C10.513 16.8825 10.861 16.3837 10.9777 15.8333H21.0833C21.2104 15.8333 21.3323 15.7916 21.4222 15.7173C21.512 15.6431 21.5625 15.5424 21.5625 15.4374C21.5625 15.3325 21.512 15.2318 21.4222 15.1575C21.3323 15.0833 21.2104 15.0416 21.0833 15.0416ZM8.14583 17.0208C7.76675 17.0208 7.39618 16.9279 7.08099 16.7539C6.7658 16.5799 6.52013 16.3327 6.37506 16.0433C6.23 15.754 6.19204 15.4357 6.26599 15.1285C6.33995 14.8214 6.52249 14.5393 6.79054 14.3178C7.0586 14.0964 7.40011 13.9456 7.77191 13.8845C8.14371 13.8234 8.52908 13.8548 8.87931 13.9746C9.22953 14.0945 9.52888 14.2974 9.73948 14.5578C9.95009 14.8182 10.0625 15.1243 10.0625 15.4374C10.0625 15.8574 9.86057 16.2601 9.50112 16.557C9.14168 16.854 8.65416 17.0208 8.14583 17.0208Z" fill="black"/>
</svg>
