<svg width="30" height="43" viewBox="0 0 43 38" fill="none" xmlns="http://www.w3.org/2000/svg">
<g id="&#240;&#159;&#166;&#134; icon &#34;User avatar&#34;">
<path id="Vector" d="M21.0728 9.5C19.7703 9.5 18.4972 9.84823 17.4142 10.5006C16.3313 11.1531 15.4872 12.0804 14.9888 13.1653C14.4904 14.2503 14.36 15.4441 14.6141 16.5958C14.8682 17.7476 15.4954 18.8056 16.4163 19.6359C17.3373 20.4663 18.5107 21.0318 19.7881 21.2609C21.0655 21.49 22.3895 21.3724 23.5928 20.923C24.7961 20.4736 25.8246 19.7126 26.5482 18.7362C27.2718 17.7598 27.658 16.6118 27.658 15.4375C27.658 13.8628 26.9642 12.3526 25.7292 11.2391C24.4943 10.1256 22.8193 9.5 21.0728 9.5ZM21.0728 19C20.2913 19 19.5274 18.7911 18.8776 18.3996C18.2279 18.0082 17.7215 17.4518 17.4224 16.8008C17.1234 16.1498 17.0451 15.4335 17.1976 14.7425C17.35 14.0514 17.7263 13.4167 18.2789 12.9184C18.8315 12.4202 19.5355 12.0809 20.302 11.9435C21.0684 11.806 21.8628 11.8765 22.5848 12.1462C23.3068 12.4158 23.9239 12.8724 24.358 13.4583C24.7922 14.0441 25.0239 14.7329 25.0239 15.4375C25.0227 16.382 24.6061 17.2875 23.8653 17.9554C23.1246 18.6233 22.1203 18.9989 21.0728 19Z" fill="#177888"/>
<path id="Vector_2" d="M21.0727 2.375C17.4259 2.375 13.8609 3.35004 10.8287 5.17682C7.7965 7.0036 5.43318 9.60007 4.0376 12.6379C2.64202 15.6757 2.27688 19.0184 2.98833 22.2434C3.69979 25.4683 5.4559 28.4306 8.03459 30.7557C10.6133 33.0807 13.8987 34.6641 17.4755 35.3056C21.0522 35.947 24.7596 35.6178 28.1288 34.3595C31.4981 33.1012 34.3778 30.9703 36.4038 28.2364C38.4299 25.5024 39.5113 22.2881 39.5113 19C39.5058 14.5923 37.5614 10.3666 34.1047 7.24984C30.648 4.13312 25.9612 2.37997 21.0727 2.375ZM13.1704 31.3221V29.6875C13.1716 28.743 13.5882 27.8375 14.3289 27.1696C15.0697 26.5017 16.074 26.126 17.1215 26.125H25.0238C26.0714 26.126 27.0757 26.5017 27.8164 27.1696C28.5571 27.8375 28.9738 28.743 28.9749 29.6875V31.3221C26.5768 32.5847 23.8497 33.25 21.0727 33.25C18.2957 33.25 15.5685 32.5847 13.1704 31.3221ZM31.5992 29.5994C31.573 28.0417 30.8691 26.5556 29.6391 25.4615C28.4092 24.3673 26.7516 23.7527 25.0238 23.75H17.1215C15.3937 23.7527 13.7362 24.3673 12.5063 25.4615C11.2763 26.5556 10.5724 28.0417 10.5462 29.5994C8.15781 27.6765 6.47353 25.1449 5.71637 22.3398C4.9592 19.5347 5.16487 16.5884 6.30615 13.891C7.44742 11.1936 9.47045 8.87237 12.1074 7.23469C14.7443 5.597 17.8707 4.72011 21.0727 4.72011C24.2746 4.72011 27.4011 5.597 30.038 7.23469C32.6749 8.87237 34.6979 11.1936 35.8392 13.891C36.9805 16.5884 37.1861 19.5347 36.429 22.3398C35.6718 25.1449 33.9875 27.6765 31.5992 29.5994Z" fill="#177888"/>
</g>
</svg>
