<svg width="7" height="11" viewBox="0 0 7 11" fill="none" xmlns="http://www.w3.org/2000/svg">
<path id="Vector" d="M3.1403 10.7781C0.491641 6.25262 0 5.78817 0 4.125C0 1.84682 1.567 0 3.5 0C5.433 0 7 1.84682 7 4.125C7 5.78817 6.50836 6.25262 3.8597 10.7781C3.68588 11.074 3.3141 11.074 3.1403 10.7781ZM3.5 5.84375C4.30542 5.84375 4.95833 5.07424 4.95833 4.125C4.95833 3.17576 4.30542 2.40625 3.5 2.40625C2.69458 2.40625 2.04167 3.17576 2.04167 4.125C2.04167 5.07424 2.69458 5.84375 3.5 5.84375Z" fill="black"/>
</svg>
